<svg width="32" height="33" viewBox="0 0 32 33" fill="none" xmlns="http://www.w3.org/2000/svg">
<path d="M27 4.9729H5.66667C4.196 4.9729 3 6.1689 3 7.63957V26.3062C3 27.7769 4.196 28.9729 5.66667 28.9729H27C28.4707 28.9729 29.6667 27.7769 29.6667 26.3062V7.63957C29.6667 6.1689 28.4707 4.9729 27 4.9729ZM5.66667 26.3062V10.3062H27L27.0027 26.3062H5.66667Z" fill="#FF4040"/>
<path d="M12.9427 13.3635L8 18.3062L12.9427 23.2489L14.828 21.3635L11.7707 18.3062L14.828 15.2489L12.9427 13.3635ZM20.1613 13.3635L18.276 15.2489L21.3333 18.3062L18.276 21.3635L20.1613 23.2489L25.104 18.3062L20.1613 13.3635Z" fill="#FF4040"/>
</svg>
