<svg width="16" height="28" viewBox="0 0 16 28" fill="none" xmlns="http://www.w3.org/2000/svg">
<path d="M13.3333 9.66081H16C16 5.87814 12.3267 4.15281 9.33333 3.75547V0.994141H6.66667V3.75547C3.67333 4.15281 0 5.87814 0 9.66081C0 13.2688 3.55467 15.1448 6.66667 15.5675V22.1941C4.736 21.8595 2.66667 20.8288 2.66667 18.9941H0C0 22.4461 3.23333 24.4861 6.66667 24.9088V27.6608H9.33333V24.9008C12.3267 24.5035 16 22.7768 16 18.9941C16 15.2115 12.3267 13.4861 9.33333 13.0888V6.46081C11.1067 6.77947 13.3333 7.71547 13.3333 9.66081ZM2.66667 9.66081C2.66667 7.71547 4.89333 6.77947 6.66667 6.46081V12.8595C4.83867 12.5221 2.66667 11.5235 2.66667 9.66081ZM13.3333 18.9941C13.3333 20.9395 11.1067 21.8755 9.33333 22.1941V15.7941C11.1067 16.1128 13.3333 17.0488 13.3333 18.9941Z" fill="#FF4040"/>
</svg>
