<svg width="28" height="25" viewBox="0 0 28 25" fill="none" xmlns="http://www.w3.org/2000/svg">
<path d="M24.6667 0.660889H3.33341C2.62617 0.660889 1.94789 0.94184 1.4478 1.44194C0.9477 1.94203 0.666748 2.62031 0.666748 3.32756V8.66089C0.666748 9.36813 0.9477 10.0464 1.4478 10.5465C1.94789 11.0466 2.62617 11.3276 3.33341 11.3276H24.6667C25.374 11.3276 26.0523 11.0466 26.5524 10.5465C27.0525 10.0464 27.3334 9.36813 27.3334 8.66089V3.32756C27.3334 2.62031 27.0525 1.94203 26.5524 1.44194C26.0523 0.94184 25.374 0.660889 24.6667 0.660889ZM18.0001 7.32756H15.3334V4.66089H18.0001V7.32756ZM23.3334 7.32756H20.6667V4.66089H23.3334V7.32756ZM24.6667 13.9942H3.33341C2.62617 13.9942 1.94789 14.2752 1.4478 14.7753C0.9477 15.2754 0.666748 15.9536 0.666748 16.6609V21.9942C0.666748 22.7015 0.9477 23.3797 1.4478 23.8798C1.94789 24.3799 2.62617 24.6609 3.33341 24.6609H24.6667C25.374 24.6609 26.0523 24.3799 26.5524 23.8798C27.0525 23.3797 27.3334 22.7015 27.3334 21.9942V16.6609C27.3334 15.9536 27.0525 15.2754 26.5524 14.7753C26.0523 14.2752 25.374 13.9942 24.6667 13.9942ZM18.0001 20.6609H15.3334V17.9942H18.0001V20.6609ZM23.3334 20.6609H20.6667V17.9942H23.3334V20.6609Z" fill="#FF4040"/>
</svg>
