<svg width="24" height="25" viewBox="0 0 24 25" fill="none" xmlns="http://www.w3.org/2000/svg">
<path d="M10 18.9941C11.775 18.9938 13.4988 18.3996 14.897 17.3061L19.293 21.7021L20.707 20.2881L16.311 15.8921C17.405 14.4938 17.9996 12.7696 18 10.9941C18 6.58314 14.411 2.99414 10 2.99414C5.589 2.99414 2 6.58314 2 10.9941C2 15.4051 5.589 18.9941 10 18.9941ZM10 4.99414C13.309 4.99414 16 7.68514 16 10.9941C16 14.3031 13.309 16.9941 10 16.9941C6.691 16.9941 4 14.3031 4 10.9941C4 7.68514 6.691 4.99414 10 4.99414Z" fill="#FF4040"/>
</svg>
