<svg width="32" height="33" viewBox="0 0 32 33" fill="none" xmlns="http://www.w3.org/2000/svg">
<path d="M29.332 11.6609C29.3321 11.4189 29.2662 11.1815 29.1413 10.9742L25.5293 4.95422C25.2913 4.56068 24.9561 4.23499 24.5559 4.00848C24.1556 3.78197 23.7038 3.66227 23.244 3.66089H8.75328C7.82262 3.66089 6.94662 4.15689 6.46795 4.95556L2.85595 10.9742C2.73108 11.1815 2.66516 11.4189 2.66528 11.6609C2.66528 13.0009 3.17995 14.2129 3.99862 15.1516V27.6609C3.99862 28.0145 4.13909 28.3537 4.38914 28.6037C4.63919 28.8537 4.97833 28.9942 5.33195 28.9942H15.9986C16.3522 28.9942 16.6914 28.8537 16.9414 28.6037C17.1915 28.3537 17.332 28.0145 17.332 27.6609V20.9942H22.6653V27.6609C22.6653 28.0145 22.8058 28.3537 23.0558 28.6037C23.3059 28.8537 23.645 28.9942 23.9986 28.9942H26.6653C27.0189 28.9942 27.358 28.8537 27.6081 28.6037C27.8581 28.3537 27.9986 28.0145 27.9986 27.6609V15.1516C28.8173 14.2129 29.332 13.0009 29.332 11.6609ZM26.6439 11.9956C26.5619 12.6394 26.2481 13.2314 25.7612 13.6606C25.2743 14.0898 24.6477 14.3269 23.9986 14.3276C22.528 14.3276 21.332 13.1316 21.332 11.6609C21.332 11.5702 21.2986 11.4902 21.28 11.4049L21.3066 11.3996L20.292 6.32756H23.244L26.6439 11.9956ZM13.3413 11.7476L14.424 6.32756H17.572L18.656 11.7476C18.6093 13.1782 17.4386 14.3276 15.9986 14.3276C14.5586 14.3276 13.3879 13.1782 13.3413 11.7476ZM8.75328 6.32756H11.7053L10.692 11.3996L10.7186 11.4049C10.6986 11.4902 10.6653 11.5702 10.6653 11.6609C10.6653 13.1316 9.46928 14.3276 7.99862 14.3276C7.34954 14.3269 6.72293 14.0898 6.23603 13.6606C5.74913 13.2314 5.43531 12.6394 5.35328 11.9956L8.75328 6.32756ZM13.332 22.3276H7.99862V18.3276H13.332V22.3276Z" fill="#FF4040"/>
</svg>
