<svg width="26" height="25" viewBox="0 0 26 25" fill="none" xmlns="http://www.w3.org/2000/svg">
<path d="M17.0106 0.9729H3.65592C2.18526 0.9729 0.989258 2.1689 0.989258 3.63957V22.3276C0.989258 23.7982 2.18526 24.9942 3.65592 24.9942H22.3439C23.8146 24.9942 25.0106 23.7982 25.0106 22.3276V3.63957C25.0106 2.1689 23.8146 0.9729 22.3439 0.9729H17.0106ZM22.3439 7.63957H18.3439V3.63957H22.3439V7.63957ZM3.65592 10.3062H7.65592V15.6609H3.65592V10.3062ZM10.3226 10.3062H15.6773V15.6609H10.3226V10.3062ZM18.3439 10.3062H22.3439V15.6609H18.3439V10.3062ZM15.6773 3.63957V7.63957H10.3226V3.63957H15.6773ZM7.65592 3.63957V7.63957H3.65592V3.63957H7.65592ZM3.65592 18.3276H7.65592V22.3276H3.65592V18.3276ZM10.3226 22.3276V18.3276H15.6773V22.3276H10.3226ZM18.3439 22.3276V18.3276H22.3453V22.3276H18.3439Z" fill="#FF4040"/>
</svg>
